<?xml version="1.0" encoding="UTF-8"?>
<!DOCTYPE svg PUBLIC "-//W3C//DTD SVG 1.1//EN" "http://www.w3.org/Graphics/SVG/1.1/DTD/svg11.dtd">
<!-- Creator: CorelDRAW -->
<svg xmlns="http://www.w3.org/2000/svg" xml:space="preserve" width="29.6332mm" height="43.9418mm" version="1.1" style="shape-rendering:geometricPrecision; text-rendering:geometricPrecision; image-rendering:optimizeQuality; fill-rule:evenodd; clip-rule:evenodd"
viewBox="0 0 2963.32 4394.18"
 xmlns:xlink="http://www.w3.org/1999/xlink"
 xmlns:xodm="http://www.corel.com/coreldraw/odm/2003">
 <defs>
  <style type="text/css">
   <![CDATA[
    .str0 {stroke:black;stroke-width:7.62;stroke-miterlimit:22.9256}
    .fil1 {fill:black}
    .fil0 {fill:white}
   ]]>
  </style>
 </defs>
 <g id="Camada_x0020_1">
  <metadata id="CorelCorpID_0Corel-Layer"/>
  <path id="corponta2" class="fil0" d="M1638.38 4213.36c-39.32,-233.7 -96.22,-337.84 -68.75,-626.9 -97.27,42.32 -145.99,37.07 -233.58,-19.03 -13.07,187.52 -59.39,404.49 -136.66,548.46 22.7,28.64 58.34,49.26 96.52,66.61l85.77 -353.83c10.18,-37.92 7.78,-82.93 15.4,-119.84 31.08,267.13 -51.02,397.09 -82.61,570.85 79.71,15.07 121.82,25.95 210.05,24.81 -20.78,-122.44 -70.77,-460.46 -18.17,-566.29 3.76,46.23 1.83,87.64 4.92,132.74l57.51 362.1 69.6 -19.68z"/>
  <path id="cor2" class="fil0" d="M1565.25 3445.73c42.94,-181.25 -177.66,-232.27 -232.7,-51.35 -55.03,180.81 188.23,239.03 232.7,51.35zm-1505.71 -2372.32c-34.02,70.28 -12.15,157.07 17.78,211.97 190.47,-11.65 378.89,-20.03 570.44,-24.73 147.82,-3.63 277.91,24.97 363.72,-82.82 35.13,-44.13 22.32,-77.1 5.02,-120.48l-956.96 16.06zm901.11 -308.28c56.21,76.42 80.87,75.37 168.94,212.88 31.56,49.28 29.29,77.86 114.8,78.05 57.5,0.12 118.28,-34.76 120.63,-79.18 2.69,-51.23 -95.53,-184.41 -149.61,-231.88 -71.5,-62.77 -215.05,-75.14 -254.76,20.13zm1928.26 172.3c12.94,-50.16 25.14,-93.75 9.61,-151.51 -102.93,-14.71 -250.5,-7.03 -364.18,-18.19 -119.42,-11.72 -224.12,-33.42 -336.02,-57.16 -171.27,-36.32 -339.54,-72.81 -511.74,-17.72 -44.81,14.33 -96.7,26.35 -94.9,105.07 1.22,53.38 44.77,97.74 100.55,89.46 31.81,-4.72 100.89,-42.21 143.15,-54.49 104.65,-30.43 236.96,12.44 339.73,31.63 250.18,46.69 452.11,66.87 713.8,72.91zm-1791.84 315.46l111.64 -76.22 -282.32 126.05c9.49,61.11 65.15,205.05 174.82,144.5 133.26,-73.58 355.42,-173.86 496.09,-239.48 85.35,-39.82 175.36,-69.32 258.23,-109.38 98.78,-47.77 67.87,-220.38 -30.33,-215.7 -36.47,1.74 -195.24,106.63 -236.22,129.23 -90.97,50.17 -407.21,216.47 -491.91,241zm304.13 2019.19c79.21,-23.71 80.19,-27.22 165.32,-3.09 -2.52,-289.04 6.79,-588.41 19.65,-877.51 9.11,-205.16 12.83,-445.05 -9.35,-650.34 -7.12,-65.86 -17.06,-142.79 -94.4,-133.92 -136.26,15.62 -96.14,214.94 -84.29,335.18 43.44,441.1 2.24,890.07 3.07,1329.68z"/>
  <path id="corponta1" class="fil0" d="M1735.39 3968.78c12.75,5.86 5.68,-37.58 11.38,-2.59 16.01,98.09 21.11,219.05 70.38,307.8l57.64 -23.34c-74.1,-298.21 -96.02,-246.67 -90.96,-615.67 -100.33,31.19 -132.33,34.14 -202.45,-38.82 -10.67,77.07 13.09,259.61 28.45,340.67l4.92 -37.77c5.99,59.07 8.05,119.78 23.56,174.95 12.53,44.63 34.97,112.12 38.77,158.61l-46.68 19.52 -15.85 108.92c55.66,31.07 127.67,8.33 178.73,-5.44 -47.19,-177.62 -99.26,-309.04 -70.55,-516.65l12.66 129.81z"/>
  <path id="cor1" class="fil0" d="M1817.02 3519.29c56.68,-163.76 -132.78,-219.44 -169.83,-95.15 -15.98,53.57 2.2,143.15 44.11,163.81 54.62,26.93 111.23,-26.85 125.72,-68.66zm-1769.38 -2709.14c-14.48,71.98 -12.74,151.81 28.04,206.96l954.18 -25.77c11.58,-216.29 -215.76,-199.34 -398.45,-197.16 -90.67,1.07 -529.41,-1.4 -583.77,15.97zm1217.97 -77.71c8.34,17.16 75.48,79.85 122.39,175.22 57.53,117.03 142,26.89 192.15,-0.29 -10.1,-135.88 -145.57,-303.26 -314.54,-174.93zm-20.92 743.41c36.16,-30.79 95.32,-59.06 131.53,-90.84l-285.49 127.04c31.31,68.04 114.72,131.24 231.75,99.53 110.31,-29.89 389.97,-280.94 531.44,-375.95 24.49,-16.45 86.3,-54.8 108.57,-78.21 -7.26,-37.19 -10.76,-35.92 -31.64,-57.62 -28.8,13.17 -47.6,34.7 -76.95,54.06 -86.04,56.72 -564.29,309.42 -609.21,321.99zm643.16 -71.72c206.99,53.51 577.96,-99.2 788.39,-155.39 79.28,-21.18 179.29,-37.6 255.45,-62.42 7.64,-80.09 -24.52,-135.09 -59.81,-174.78 -242.59,43.35 -459.52,178.52 -675.13,199.93 -60.63,6.02 -121.37,-6.72 -176.21,1.34 -94.29,13.85 -177.93,97.98 -132.69,191.32zm-259.18 1926.17c66.96,-20.02 80.17,-15.14 144.37,-0.59 14.12,-318.18 5.77,-641.93 19.82,-962.65 9.1,-207.71 38.09,-757.34 -54.71,-916.11 -49.27,-4.86 -67.66,1.33 -96.92,29.96 -75.47,73.86 -38.25,204.41 -21.73,322.95 22.31,160 26.02,335.21 29.16,497.72 6.67,345.8 -22.69,688.84 -19.99,1028.72z"/>
  <path id="contorno" class="fil1 str0" d="M1581.38 3596.16c70.12,72.96 102.12,70.01 202.45,38.82 -5.06,369 16.86,317.46 90.96,615.67l-57.64 23.34c-49.27,-88.75 -54.37,-209.71 -70.38,-307.8 -5.7,-34.99 1.37,8.45 -11.38,2.59l-12.66 -129.81c-28.71,207.61 23.36,339.03 70.55,516.65 -51.06,13.77 -123.07,36.51 -178.73,5.44l15.85 -108.92 46.68 -19.52c-3.8,-46.49 -26.24,-113.98 -38.77,-158.61 -15.51,-55.17 -17.57,-115.88 -23.56,-174.95l-4.92 37.77c-15.36,-81.06 -39.12,-263.6 -28.45,-340.67zm57 617.2l-69.6 19.68 -57.51 -362.1c-3.09,-45.1 -1.16,-86.51 -4.92,-132.74 -52.6,105.83 -2.61,443.85 18.17,566.29 -88.23,1.14 -130.34,-9.74 -210.05,-24.81 31.59,-173.76 113.69,-303.72 82.61,-570.85 -7.62,36.91 -5.22,81.92 -15.4,119.84l-85.77 353.83c-38.18,-17.35 -73.82,-37.97 -96.52,-66.61 77.27,-143.97 123.59,-360.94 136.66,-548.46 87.59,56.1 136.31,61.35 233.58,19.03 -27.47,289.06 29.43,393.2 68.75,626.9zm178.64 -694.07c-14.49,41.81 -71.1,95.59 -125.72,68.66 -41.91,-20.66 -60.09,-110.24 -44.11,-163.81 37.05,-124.29 226.51,-68.61 169.83,95.15zm-251.77 -73.56c-44.47,187.68 -287.73,129.46 -232.7,-51.35 55.04,-180.92 275.64,-129.9 232.7,51.35zm-164.05 -173.65c-0.83,-439.61 40.37,-888.58 -3.07,-1329.68 -11.85,-120.24 -51.97,-319.56 84.29,-335.18 77.34,-8.87 87.28,68.06 94.4,133.92 22.18,205.29 18.46,445.18 9.35,650.34 -12.86,289.1 -22.17,588.47 -19.65,877.51 -85.13,-24.13 -86.11,-20.62 -165.32,3.09zm227.47 58.22c-2.7,-339.88 26.66,-682.92 19.99,-1028.72 -3.14,-162.51 -6.85,-337.72 -29.16,-497.72 -16.52,-118.54 -53.74,-249.09 21.73,-322.95 29.26,-28.63 47.65,-34.82 96.92,-29.96 92.8,158.77 63.81,708.4 54.71,916.11 -14.05,320.72 -5.7,644.47 -19.82,962.65 -64.2,-14.55 -77.41,-19.43 -144.37,0.59zm259.18 -1926.17c-45.24,-93.34 38.4,-177.47 132.69,-191.32 54.84,-8.06 115.58,4.68 176.21,-1.34 215.61,-21.41 432.54,-156.58 675.13,-199.93 35.29,39.69 67.45,94.69 59.81,174.78 -76.16,24.82 -176.17,41.24 -255.45,62.42 -210.43,56.19 -581.4,208.9 -788.39,155.39zm-643.16 71.72c44.92,-12.57 523.17,-265.27 609.21,-321.99 29.35,-19.36 48.15,-40.89 76.95,-54.06 20.88,21.7 24.38,20.43 31.64,57.62 -22.27,23.41 -84.08,61.76 -108.57,78.21 -141.47,95.01 -421.13,346.06 -531.44,375.95 -117.03,31.71 -200.44,-31.49 -231.75,-99.53l285.49 -127.04c-36.21,31.78 -95.37,60.05 -131.53,90.84zm-228.19 -418.5c17.3,43.38 30.11,76.35 -5.02,120.48 -85.81,107.79 -215.9,79.19 -363.72,82.82 -191.55,4.7 -379.97,13.08 -570.44,24.73 -29.93,-54.9 -51.8,-141.69 -17.78,-211.97l956.96 -16.06zm80.57 195.54c84.7,-24.53 400.94,-190.83 491.91,-241 40.98,-22.6 199.75,-127.49 236.22,-129.23 98.2,-4.68 129.11,167.93 30.33,215.7 -82.87,40.06 -172.88,69.56 -258.23,109.38 -140.67,65.62 -362.83,165.9 -496.09,239.48 -109.67,60.55 -165.33,-83.39 -174.82,-144.5l282.32 -126.05 -111.64 76.22zm-1049.43 -442.74c54.36,-17.37 493.1,-14.9 583.77,-15.97 182.69,-2.18 410.03,-19.13 398.45,197.16l-954.18 25.77c-40.78,-55.15 -42.52,-134.98 -28.04,-206.96zm2841.27 127.28c-261.69,-6.04 -463.62,-26.22 -713.8,-72.91 -102.77,-19.18 -235.08,-62.06 -339.73,-31.63 -42.26,12.28 -111.34,49.77 -143.15,54.49 -55.78,8.28 -99.33,-36.07 -100.55,-89.46 -1.8,-78.72 50.09,-90.74 94.9,-105.07 172.2,-55.09 340.47,-18.6 511.74,17.72 111.9,23.74 216.6,45.44 336.02,57.16 113.68,11.16 261.25,3.48 364.18,18.19 15.53,57.76 3.33,101.35 -9.61,151.51zm-1928.26 -172.3c39.71,-95.27 183.26,-82.9 254.76,-20.13 54.08,47.47 152.3,180.65 149.61,231.88 -2.35,44.42 -63.13,79.3 -120.63,79.18 -85.51,-0.19 -83.24,-28.77 -114.8,-78.05 -88.07,-137.51 -112.73,-136.46 -168.94,-212.88zm304.96 -32.69c168.97,-128.33 304.44,39.05 314.54,174.93 -50.15,27.18 -134.62,117.32 -192.15,0.29 -46.91,-95.37 -114.05,-158.06 -122.39,-175.22zm1605.04 254.36c-221.6,-1.26 -535.42,244.84 -872,191.98 4.04,-63.51 -36.48,-79 -57.89,-113.6 41.23,-84.51 -0.67,-164.17 -60.43,-218.96 111.19,-7.17 327.51,63.6 493.89,89 163.63,24.99 376.26,45.34 542.25,36.99 3.89,-94.21 36.48,-88.03 -7.78,-204.34 -120.42,-18.62 -241.75,-20.84 -365.17,-43.08 -113.26,-20.41 -222.28,-44.92 -331.76,-68.3 -182.21,-38.91 -525.72,-90.05 -654.7,78.02 -21.96,-9.52 -14.65,-5.52 -35.31,-26.39 -111.85,-113.07 -247.49,-8.92 -285.86,6.67 -79.08,-69.16 -252.47,-67.52 -285.62,42.13 -307.64,-11.63 -597.77,-5.19 -904.08,3.75 -87.66,123.35 -11.46,271.4 -12.49,297.74 -2.06,52.48 -28.96,77.62 -17.84,159.26 8.17,59.94 26.42,87.91 50,123.02l805.16 -16.16c8.53,117.64 69.65,202.61 190.17,203.18 42.53,101.82 127.63,143.9 266.83,127.09 59.81,565.74 20.14,769.38 10.42,1316.93 -1.84,104.14 4.88,235.41 -3.63,335.32 -4.66,54.84 -43.08,66.45 -37.37,138.91 6.03,76.55 41.03,36.79 21.63,139.4 -18.07,95.6 -38.39,188.74 -64.15,279.64 -19.35,68.3 -70.82,202.5 -77.67,259.06 32.6,32.15 75.85,73.65 135.04,88.23l-19.89 75.22c58.84,47.52 168.67,43.77 247.02,29.15l7.94 -21.52c9.44,-30.63 -9.47,-2.15 7.62,-29.58l53.47 -6.02 -10.73 115.97c77.75,37.22 143.04,22.18 210.96,-18.61l-5.32 -54.69 94.12 -32.98c0.39,-59.29 -60.92,-238.21 -74.34,-323.11 -9.23,-58.41 -15.18,-120.17 -18.08,-181.09 -3.07,-64.45 -13.81,-140.31 12.07,-171.57 87.82,-106.1 15.95,-173.81 14.78,-237.07 -0.55,-30.09 3.33,-67.84 4.58,-98.85 15.58,-388.8 27.17,-770.03 18.04,-1160.01 -8.82,-376.95 -23.04,-364.67 -99.18,-697.63 127.38,36.26 174.76,60.96 326.09,45.25 99.97,-10.37 207.85,-36.15 299.85,-65.94 93.14,-30.16 185.87,-61.37 280.84,-87.32 71.61,-19.57 236.03,-49.18 293.57,-73.98 24.39,-148.33 -81.42,-206.7 -85.05,-231.11z"/>
 </g>
</svg>
