<?xml version="1.0" encoding="UTF-8"?>
<!DOCTYPE svg PUBLIC "-//W3C//DTD SVG 1.1//EN" "http://www.w3.org/Graphics/SVG/1.1/DTD/svg11.dtd">
<!-- Creator: CorelDRAW -->
<svg xmlns="http://www.w3.org/2000/svg" xml:space="preserve" width="50mm" height="25mm" version="1.1" style="shape-rendering:geometricPrecision; text-rendering:geometricPrecision; image-rendering:optimizeQuality; fill-rule:evenodd; clip-rule:evenodd"
viewBox="0 0 5000 2500"
 xmlns:xlink="http://www.w3.org/1999/xlink"
 xmlns:xodm="http://www.corel.com/coreldraw/odm/2003">
 <defs>
  <style type="text/css">
   <![CDATA[
    .str0 {stroke:#373435;stroke-width:20;stroke-miterlimit:22.9256}
    .fil1 {fill:#373435}
    .fil2 {fill:#FEFEFE;fill-rule:nonzero}
    .fil0 {fill:red;fill-rule:nonzero}
   ]]>
  </style>
 </defs>
 <g id="Camada_x0020_1">
  <metadata id="CorelCorpID_0Corel-Layer"/>
  <path id="uai" class="fil0" d="M1753.93 100.02l0 1493.1c0,263.52 -78.25,474.11 -235.32,631.76 -156.51,157.65 -365.37,236.48 -626.01,236.48 -260.07,0 -458.58,-76.53 -596.09,-229.58 -137.52,-153.05 -206.56,-373.41 -206.56,-660.53l0 -1471.23 683.54 0 0 1469.51c0,140.96 50.06,211.73 150.75,211.73 97.24,0 146.15,-70.77 146.15,-211.73l0 -1469.51 683.54 0zm1249.14 1146.15l0 607.59 -196.78 0 0 548.91 -683.54 0 0 -1464.33c0,-282.51 77.1,-502.3 231.88,-658.8 154.77,-156.51 372.26,-234.76 652.47,-234.76 270.43,0 470.08,70.77 599.54,212.89 129.46,142.12 193.9,360.76 193.9,657.08l0 1487.92 -683.54 0 0 -1442.47c0,-88.6 -10.93,-149.59 -32.22,-184.12 -21.87,-33.94 -60.42,-51.2 -116.23,-51.2 -108.17,0 -162.26,78.25 -162.26,235.32l0 285.97 196.78 0zm1894.72 -1146.15l0 2302.65 -683.55 0 0 -2302.65 683.55 0z"/>
  <polygon id="faixa" class="fil1 str0" points="561.69,1235.25 2991.98,1235.25 2991.98,1836.2 561.69,1836.2 "/>
  <path id="capoeira" class="fil2" d="M855.87 1598.86l43.04 10.87c-8.99,35.26 -25.14,62.06 -48.47,80.55 -23.33,18.5 -51.87,27.79 -85.61,27.79 -34.88,0 -63.27,-7.1 -85.16,-21.37 -21.9,-14.19 -38.5,-34.8 -49.9,-61.75 -11.4,-27.03 -17.14,-55.95 -17.14,-86.9 0,-33.75 6.42,-63.19 19.33,-88.33 12.9,-25.14 31.25,-44.24 55.03,-57.3 23.78,-13.06 49.98,-19.55 78.52,-19.55 32.46,0 59.71,8.23 81.76,24.76 22.12,16.53 37.52,39.71 46.2,69.61l-42.13 9.96c-7.47,-23.55 -18.42,-40.77 -32.69,-51.49 -14.26,-10.79 -32.23,-16.15 -53.9,-16.15 -24.84,0 -45.67,5.96 -62.36,17.89 -16.68,11.93 -28.46,28.01 -35.18,48.09 -6.79,20.16 -10.19,40.92 -10.19,62.28 0,27.56 4,51.64 12,72.18 8.01,20.61 20.46,35.93 37.37,46.13 16.91,10.19 35.18,15.25 54.89,15.25 24.01,0 44.24,-6.95 60.85,-20.77 16.61,-13.89 27.85,-34.42 33.74,-61.75zm60.55 113.77l124.42 -324.33 47.18 0 132.04 324.33 -48.84 0 -37.52 -98.29 -136.58 0 -35.18 98.29 -45.52 0zm93.31 -133.17l110.53 0 -33.82 -89.92c-10.2,-27.33 -17.9,-49.9 -23.26,-67.72 -4.45,21.14 -10.42,41.9 -17.89,62.44l-35.56 95.2zm244.38 133.17l0 -324.33 122.45 0c21.52,0 37.98,1.06 49.38,3.1 15.92,2.64 29.29,7.7 40.08,15.1 10.8,7.47 19.48,17.89 26.05,31.25 6.57,13.37 9.81,28.09 9.81,44.17 0,27.48 -8.75,50.81 -26.34,69.83 -17.52,19.1 -49.3,28.61 -95.2,28.61l-83.2 0 0 132.27 -43.03 0zm43.03 -170.32l83.8 0c27.78,0 47.41,-5.13 59.11,-15.47 11.63,-10.35 17.44,-24.84 17.44,-43.64 0,-13.51 -3.4,-25.14 -10.27,-34.8 -6.87,-9.67 -15.92,-16.08 -27.1,-19.18 -7.25,-1.89 -20.61,-2.87 -40.01,-2.87l-82.97 0 0 115.96zm245.96 12.46c0,-53.75 14.5,-95.88 43.41,-126.3 28.92,-30.43 66.21,-45.6 111.96,-45.6 29.97,0 56.92,7.17 81.01,21.44 24,14.27 42.35,34.2 54.96,59.79 12.61,25.52 18.95,54.51 18.95,86.9 0,32.84 -6.65,62.28 -19.93,88.17 -13.29,25.97 -32.09,45.6 -56.4,58.89 -24.38,13.36 -50.66,20.01 -78.82,20.01 -30.57,0 -57.82,-7.4 -81.91,-22.12 -24,-14.73 -42.27,-34.81 -54.66,-60.32 -12.38,-25.45 -18.57,-52.4 -18.57,-80.86zm44.39 0.75c0,39.04 10.5,69.76 31.49,92.18 20.98,22.43 47.33,33.68 79.04,33.68 32.31,0 58.81,-11.33 79.72,-33.98 20.84,-22.65 31.26,-54.81 31.26,-96.48 0,-26.35 -4.46,-49.37 -13.37,-69 -8.91,-19.63 -21.97,-34.88 -39.1,-45.68 -17.22,-10.79 -36.47,-16.23 -57.83,-16.23 -30.35,0 -56.47,10.42 -78.37,31.26 -21.89,20.83 -32.84,55.56 -32.84,104.25zm321.99 157.11l0 -324.33 234.19 0 0 38.05 -191.15 0 0 99.66 178.92 0 0 38.05 -178.92 0 0 110.52 198.85 0 0 38.05 -241.89 0zm308.48 0l0 -324.33 43.03 0 0 324.33 -43.03 0zm119.5 0l0 -324.33 143.75 0c28.91,0 50.88,2.95 65.9,8.76 15.03,5.81 27.03,16.08 36.02,30.8 8.98,14.72 13.43,31.03 13.43,48.85 0,23.02 -7.47,42.43 -22.34,58.2 -14.88,15.78 -37.83,25.75 -68.93,30.05 11.4,5.44 20.01,10.87 25.89,16.16 12.54,11.47 24.39,25.89 35.49,43.18l56.09 88.33 -53.6 0 -42.88 -67.49c-12.46,-19.56 -22.8,-34.43 -30.88,-44.77 -8.15,-10.34 -15.4,-17.52 -21.82,-21.67 -6.34,-4.07 -12.91,-6.94 -19.55,-8.6 -4.83,-0.99 -12.76,-1.51 -23.86,-1.51l-49.67 0 0 144.04 -43.04 0zm43.04 -181.19l92.1 0c19.63,0 34.88,-2.04 45.9,-6.11 11.02,-4 19.4,-10.5 25.07,-19.48 5.73,-8.91 8.6,-18.57 8.6,-29.07 0,-15.32 -5.51,-28.01 -16.61,-37.89 -11.09,-9.89 -28.61,-14.8 -52.54,-14.8l-102.52 0 0 107.35zm247.62 181.19l124.42 -324.33 47.18 0 132.04 324.33 -48.84 0 -37.52 -98.29 -136.58 0 -35.18 98.29 -45.52 0zm93.31 -133.17l110.53 0 -33.82 -89.92c-10.2,-27.33 -17.9,-49.9 -23.26,-67.72 -4.45,21.14 -10.42,41.9 -17.89,62.44l-35.56 95.2z"/>
 </g>
</svg>
